# xmcd
#
# Track frame offsets: 
#        150
#        22618
#        40986
#        59367
#        64949
#        80438
#        88304
#        103014
#        113201
#        123968
#        129264
#        150137
#        158903
#        179811
#        202211
#        221259
#
# Disc length: 3307 seconds
#
# Revision: 1
# Processed by: cddbd v1.5.1PL0 Copyright (c) Steve Scherf et al.
# Submitted via: ExactAudioCopy v0.95a5
#
DISCID=d60ce910
DTITLE=Stian Carstensen - Backwards Into The Backwoods
DYEAR=2004
DGENRE=Jazz
TTITLE0=Dimitri's Polynesian Vacation
TTITLE1=Death Of A Neutered Choir Boy
TTITLE2=See Fair Lis (Is Her Veneer Real?)
TTITLE3=Backwards Into The Backwoods
TTITLE4=Zat Was Zen... Zis Is Now
TTITLE5=Solo Improvisation, Nº. 1
TTITLE6=Solo Improvisation, Nº. 2
TTITLE7=Solo Improvisation, Nº. 3
TTITLE8=Solo Improvisation, Nº. 4
TTITLE9=Solo Improvisation, Nº. 5
TTITLE10=Gyorgy's Appalachian Vacation
TTITLE11=What's That Horsehead Doing On My Pillow?
TTITLE12=(Look Granpa!) Buckwheat's On Bogweed
TTITLE13=One Legged Cow's New Age Square Dance
TTITLE14=Vlad Tepes' Two-Step (Swing That Bat...)
TTITLE15=Funeral March For A Neutered Choir Boy
EXTD=
EXTT0=
EXTT1=
EXTT2=
EXTT3=
EXTT4=
EXTT5=
EXTT6=
EXTT7=
EXTT8=
EXTT9=
EXTT10=
EXTT11=
EXTT12=
EXTT13=
EXTT14=
EXTT15=
PLAYORDER=
